<?xml version="1.0" encoding="UTF-8" standalone="no"?>
<!-- Created with Inkscape (http://www.inkscape.org/) -->

<svg
   width="91.646156mm"
   height="42.724144mm"
   viewBox="0 0 91.646156 42.724144"
   version="1.1"
   id="svg5"
   sodipodi:docname="inkscape_logo_org2.svg"
   inkscape:version="1.2.2 (732a01da63, 2022-12-09)"
   xmlns:inkscape="http://www.inkscape.org/namespaces/inkscape"
   xmlns:sodipodi="http://sodipodi.sourceforge.net/DTD/sodipodi-0.dtd"
   xmlns="http://www.w3.org/2000/svg"
   xmlns:svg="http://www.w3.org/2000/svg">
  <sodipodi:namedview
     id="namedview7"
     pagecolor="#505050"
     bordercolor="#eeeeee"
     borderopacity="1"
     inkscape:showpageshadow="0"
     inkscape:pageopacity="0"
     inkscape:pagecheckerboard="0"
     inkscape:deskcolor="#505050"
     inkscape:document-units="mm"
     showgrid="false"
     showguides="true"
     inkscape:zoom="2.9857056"
     inkscape:cx="246.5079"
     inkscape:cy="461.86738"
     inkscape:window-width="1920"
     inkscape:window-height="1017"
     inkscape:window-x="-8"
     inkscape:window-y="-8"
     inkscape:window-maximized="1"
     inkscape:current-layer="layer1">
    <sodipodi:guide
       position="48.277082,42.742942"
       orientation="0,-1"
       id="guide1895"
       inkscape:locked="false" />
    <sodipodi:guide
       position="34.966074,28.757742"
       orientation="0,-1"
       id="guide4935"
       inkscape:locked="false" />
    <sodipodi:guide
       position="62.761298,23.957452"
       orientation="0,-1"
       id="guide334"
       inkscape:locked="false" />
    <sodipodi:guide
       position="35.918203,41.033322"
       orientation="1,0"
       id="guide2030"
       inkscape:locked="false" />
    <sodipodi:guide
       position="31.939224,15.969012"
       orientation="0,-1"
       id="guide2040"
       inkscape:locked="false" />
    <sodipodi:guide
       position="29.534441,21.344462"
       orientation="0,-1"
       id="guide2059"
       inkscape:locked="false" />
  </sodipodi:namedview>
  <defs
     id="defs2" />
  <g
     inkscape:label="Ebene 1"
     inkscape:groupmode="layer"
     id="layer1"
     transform="matrix(0.81100821,0,0,0.81100821,-18.130235,-79.600243)">
    <g
       aria-label="compass"
       id="text2024"
       style="font-size:26.0992px;letter-spacing:-1.6312px;fill:#454545;stroke-width:0.32624"
       inkscape:label="compass">
      <path
         d="m 135.35794,127.37105 q 0,1.62483 -1.34871,2.66556 -1.33809,1.04074 -3.66382,1.04074 -1.31685,0 -2.42131,-0.30797 -1.09384,-0.31859 -1.83722,-0.69029 v -2.24077 h 0.1062 q 0.94516,0.71153 2.10271,1.13632 1.15756,0.41417 2.21954,0.41417 1.31685,0 2.06023,-0.42479 0.74339,-0.42479 0.74339,-1.33809 0,-0.70091 -0.40355,-1.06198 -0.40356,-0.36107 -1.55049,-0.61595 -0.42479,-0.0956 -1.11508,-0.22301 -0.67966,-0.12744 -1.24251,-0.27612 -1.56111,-0.41417 -2.21953,-1.21065 -0.64781,-0.80711 -0.64781,-1.97528 0,-0.73277 0.29735,-1.38057 0.30798,-0.64781 0.92392,-1.15756 0.59471,-0.49913 1.50801,-0.78586 0.92392,-0.29735 2.06024,-0.29735 1.06198,0 2.14519,0.26549 1.09384,0.25487 1.81598,0.62657 v 2.13457 h -0.10619 q -0.76463,-0.56285 -1.85846,-0.94516 -1.09384,-0.39293 -2.1452,-0.39293 -1.09384,0 -1.84784,0.42479 -0.754,0.41417 -0.754,1.24251 0,0.73277 0.45665,1.10446 0.44603,0.37169 1.44429,0.60533 0.55222,0.12744 1.23189,0.25487 0.69029,0.12744 1.14694,0.23364 1.39119,0.31859 2.14519,1.09384 0.754,0.78586 0.754,2.08147 z"
         style="font-size:21.7493px;letter-spacing:-1.6312px;fill:#454545;stroke-width:0.32624"
         id="path3315"
         inkscape:label="s2" />
      <path
         d="m 125.65785,127.37105 q 0,1.62483 -1.34871,2.66556 -1.3381,1.04074 -3.66383,1.04074 -1.31685,0 -2.4213,-0.30797 -1.09384,-0.31859 -1.83723,-0.69029 v -2.24077 h 0.1062 q 0.94516,0.71153 2.10272,1.13632 1.15755,0.41417 2.21953,0.41417 1.31685,0 2.06024,-0.42479 0.74338,-0.42479 0.74338,-1.33809 0,-0.70091 -0.40355,-1.06198 -0.40355,-0.36107 -1.55049,-0.61595 -0.42479,-0.0956 -1.11507,-0.22301 -0.67967,-0.12744 -1.24252,-0.27612 -1.5611,-0.41417 -2.21953,-1.21065 -0.64781,-0.80711 -0.64781,-1.97528 0,-0.73277 0.29736,-1.38057 0.30797,-0.64781 0.92392,-1.15756 0.5947,-0.49913 1.50801,-0.78586 0.92392,-0.29735 2.06023,-0.29735 1.06198,0 2.1452,0.26549 1.09383,0.25487 1.81598,0.62657 v 2.13457 h -0.1062 q -0.76462,-0.56285 -1.85846,-0.94516 -1.09384,-0.39293 -2.1452,-0.39293 -1.09383,0 -1.84784,0.42479 -0.754,0.41417 -0.754,1.24251 0,0.73277 0.45665,1.10446 0.44603,0.37169 1.44429,0.60533 0.55223,0.12744 1.23189,0.25487 0.69029,0.12744 1.14694,0.23364 1.39119,0.31859 2.14519,1.09384 0.75401,0.78586 0.75401,2.08147 z"
         style="font-size:21.7493px;letter-spacing:-1.6312px;fill:#454545;stroke-width:0.32624"
         id="path3313"
         inkscape:label="s1" />
      <path
         d="m 114.97011,130.79062 h -1.9859 v -1.26375 q -0.2655,0.18053 -0.72215,0.50974 -0.44603,0.3186 -0.87082,0.50975 -0.49913,0.24426 -1.14693,0.40356 -0.64781,0.16991 -1.51863,0.16991 -1.60359,0 -2.71866,-1.06198 -1.11508,-1.06197 -1.11508,-2.70804 0,-1.34871 0.57347,-2.17705 0.58409,-0.83896 1.65668,-1.31685 1.08322,-0.47789 2.60185,-0.64781 1.51863,-0.16992 3.26027,-0.25488 v -0.30797 q 0,-0.67966 -0.24426,-1.1257 -0.23363,-0.44603 -0.67966,-0.7009 -0.42479,-0.24426 -1.0195,-0.32921 -0.59471,-0.085 -1.24251,-0.085 -0.78587,0 -1.75227,0.21239 -0.9664,0.20178 -1.99651,0.59471 h -0.1062 v -2.02838 q 0.58409,-0.15929 1.68854,-0.35045 1.10446,-0.19115 2.17706,-0.19115 1.25313,0 2.17705,0.21239 0.93454,0.20178 1.61421,0.70091 0.66904,0.48851 1.01949,1.26375 0.35046,0.77524 0.35046,1.92218 z m -1.9859,-2.92044 v -3.30275 q -0.9133,0.0531 -2.15582,0.1593 -1.23189,0.10619 -1.95403,0.30797 -0.86021,0.24426 -1.39119,0.76462 -0.53099,0.50975 -0.53099,1.41243 0,1.0195 0.61594,1.53987 0.61595,0.50975 1.8797,0.50975 1.05136,0 1.92218,-0.40355 0.87082,-0.41417 1.61421,-0.98764 z"
         style="font-size:21.7493px;letter-spacing:-1.6312px;fill:#454545;stroke-width:0.32624"
         id="path3311"
         inkscape:label="a" />
      <path
         d="m 104.27175,124.71611 q 0,1.44429 -0.41418,2.64432 -0.41417,1.18942 -1.16817,2.01776 -0.70091,0.78586 -1.65669,1.22127 -0.94516,0.42479 -2.007134,0.42479 -0.92392,0 -1.677924,-0.20177 -0.743385,-0.20178 -1.518628,-0.62657 v 4.97006 h -1.996518 v -16.23764 h 1.996518 v 1.24251 q 0.796483,-0.66904 1.784122,-1.11507 0.998259,-0.45665 2.123955,-0.45665 2.145199,0 3.334609,1.62482 1.20004,1.61421 1.20004,4.49217 z m -2.06024,0.0531 q 0,-2.1452 -0.73277,-3.20718 -0.73276,-1.06197 -2.251388,-1.06197 -0.860202,0 -1.731024,0.37169 -0.870821,0.37169 -1.667304,0.97702 v 6.72232 q 0.849582,0.38231 1.454909,0.52036 0.615947,0.13806 1.39119,0.13806 1.667307,0 2.601847,-1.12569 0.93454,-1.1257 0.93454,-3.33461 z"
         style="font-size:21.7493px;letter-spacing:-1.6312px;fill:#454545;stroke-width:0.32624"
         id="path3309"
         inkscape:label="p" />
      <path
         d="M 91.619348,130.79062 H 89.62283 v -6.75418 q 0,-0.76462 -0.07434,-1.47615 -0.06372,-0.71152 -0.286734,-1.13631 -0.244255,-0.45665 -0.700905,-0.69029 -0.456651,-0.23363 -1.316852,-0.23363 -0.838963,0 -1.677925,0.42479 -0.838962,0.41417 -1.677924,1.06198 0.03186,0.24425 0.0531,0.57346 0.02124,0.3186 0.02124,0.63719 v 7.59314 h -1.996518 v -6.75418 q 0,-0.78586 -0.07434,-1.48677 -0.06372,-0.71152 -0.286734,-1.13631 -0.244255,-0.45665 -0.700905,-0.67967 -0.456651,-0.23363 -1.316852,-0.23363 -0.817723,0 -1.646066,0.40355 -0.817722,0.40355 -1.635445,1.03012 v 8.85689 h -1.996518 v -11.86229 h 1.996518 v 1.31685 q 0.93454,-0.77524 1.858461,-1.21065 0.93454,-0.43541 1.985898,-0.43541 1.210654,0 2.049616,0.50975 0.849582,0.50975 1.263754,1.41243 1.210654,-1.0195 2.208913,-1.46553 0.998259,-0.45665 2.134575,-0.45665 1.954038,0 2.877959,1.18941 0.93454,1.1788 0.93454,3.30275 z"
         style="font-size:21.7493px;letter-spacing:-1.6312px;fill:#454545;stroke-width:0.32624"
         id="path3307"
         inkscape:label="m" />
      <path
         d="m 66.813668,117.81748 c 1.801117,0 3.34311,0.64993 4.625981,1.9498 1.291367,1.29137 1.93705,2.84185 1.93705,4.65146 0,1.8351 -0.654179,3.39833 -1.962537,4.6897 -1.299863,1.29137 -2.871592,1.93705 -4.715188,1.93705 -1.843595,0 -3.419572,-0.64568 -4.727931,-1.93705 -1.308358,-1.29986 -1.962537,-2.86309 -1.962537,-4.6897 0,-1.86059 0.654179,-3.42382 1.962537,-4.6897 1.308359,-1.27437 2.922567,-1.91156 4.842625,-1.91156 z m -0.127437,3.50998 c -1.106289,-0.0176 -1.50789,0.0614 -2.335426,0.78039 -0.702012,0.71051 -0.880424,1.34907 -0.880424,2.3864 0,1.09159 0.241173,1.57326 0.911805,2.35503 0.710508,0.68762 1.3007,0.84314 2.272665,0.84314 0.98046,0 1.445128,-0.21834 2.209902,-0.90591 0.679127,-0.65624 0.9415,-1.20094 0.955929,-2.19812 0.01411,-0.97497 -0.272554,-1.58175 -0.849044,-2.29226 -0.450967,-0.59348 -1.359421,-0.95397 -2.285407,-0.96867 z"
         style="font-size:26.0992px;font-family:'Bauhaus 93';-inkscape-font-specification:'Bauhaus 93, ';letter-spacing:-1.6312px;fill:#454545;stroke-width:0.32624"
         id="path3305"
         sodipodi:nodetypes="scscscscsscscscscs"
         inkscape:label="o" />
      <path
         d="m 60.433298,130.04723 q -0.998259,0.47789 -1.90094,0.74339 -0.892061,0.26549 -1.90094,0.26549 -1.284993,0 -2.35759,-0.37169 -1.072597,-0.38231 -1.837221,-1.14693 -0.775244,-0.76463 -1.200035,-1.9328 -0.424791,-1.16818 -0.424791,-2.72929 0,-2.90981 1.592967,-4.5665 1.603586,-1.65668 4.22667,-1.65668 1.019499,0 1.996518,0.28673 0.987639,0.28673 1.805362,0.7009 v 2.21954 H 60.3271 q -0.913301,-0.71153 -1.89032,-1.09384 -0.9664,-0.38231 -1.89032,-0.38231 -1.699164,0 -2.686803,1.14693 -0.97702,1.13632 -0.97702,3.34523 0,2.1452 0.95578,3.30275 0.9664,1.14694 2.708043,1.14694 0.605327,0 1.231894,-0.1593 0.626567,-0.15929 1.125696,-0.41417 0.435411,-0.22301 0.817723,-0.46727 0.382312,-0.25487 0.605327,-0.43541 h 0.106198 z"
         style="font-size:21.7493px;-inkscape-font-specification:sans-serif"
         id="path3303"
         inkscape:label="c" />
    </g>
    <g
       aria-label="desk"
       id="text113"
       clip-path="none"
       style="font-size:22.5778px;fill:#252525;stroke-width:0.264583"
       inkscape:label="desk">
      <path
         d="m 77.315361,115.32258 h -4.619189 l -3.47266,-5.39089 -1.080383,1.31189 v 4.079 h -3.968754 l 1.520241,-6.51215 0.928272,-6.66567 1.520241,6.26557 4.277435,-5.46806 h 4.575092 l -4.453824,5.33577 z"
         style="font-weight:bold;-inkscape-font-specification:'sans-serif Bold';fill:#000000"
         id="path3300"
         sodipodi:nodetypes="ccccccccccccc"
         inkscape:label="k" />
      <path
         d="m 62.776752,111.39792 q 0,1.91823 -1.719794,3.09783 -1.719793,1.16858 -4.707383,1.16858 -1.653647,0 -2.998614,-0.30868 -1.344967,-0.30868 -2.160766,-0.68351 v -3.26319 h 0.363802 q 0.297657,0.20946 0.683508,0.46302 0.396875,0.24253 1.113456,0.52916 0.617362,0.25356 1.400088,0.44098 0.782727,0.17639 1.675696,0.17639 1.168578,0 1.730818,-0.25356 0.56224,-0.26459 0.56224,-0.77171 0,-0.45199 -0.330729,-0.65043 -0.33073,-0.20946 -1.256772,-0.39688 -0.440973,-0.0992 -1.201651,-0.20946 -0.749653,-0.12126 -1.367015,-0.28663 -1.686721,-0.44097 -2.50252,-1.36701 -0.815799,-0.93707 -0.815799,-2.32614 0,-1.78594 1.68672,-2.96554 1.697745,-1.19062 4.630213,-1.19062 1.389064,0 2.65686,0.28663 1.278821,0.27561 1.995402,0.59531 v 3.13091 h -0.341754 q -0.881945,-0.60634 -2.01745,-0.98117 -1.12448,-0.38585 -2.282034,-0.38585 -0.959115,0 -1.620574,0.26459 -0.650435,0.26458 -0.650435,0.74965 0,0.44097 0.297657,0.67248 0.297656,0.23151 1.400088,0.46302 0.606337,0.12127 1.300869,0.24254 0.705557,0.11024 1.411113,0.28663 1.565453,0.4079 2.315106,1.28985 0.749654,0.87092 0.749654,2.18281 z"
         style="font-weight:bold;font-size:22.5778px;-inkscape-font-specification:'sans-serif Bold';fill:#000000;stroke-width:0.264583"
         id="path3298"
         inkscape:label="s" />
      <path
         d="m 49.216842,109.86554 h -9.084037 q 0.08819,1.45521 1.102432,2.22691 1.025262,0.77171 3.009639,0.77171 1.256772,0 2.436374,-0.452 1.179602,-0.452 1.863109,-0.97014 h 0.440973 v 3.18603 q -1.344967,0.54019 -2.535593,0.78272 -1.190626,0.24254 -2.634812,0.24254 -3.726219,0 -5.710596,-1.6757 -1.984377,-1.67569 -1.984377,-4.77353 0,-3.06476 1.874134,-4.8507 1.885158,-1.79696 5.15938,-1.79696 3.020663,0 4.542019,1.53238 1.521355,1.52136 1.521355,4.38768 z m -3.946705,-2.32613 q -0.03307,-1.24575 -0.617362,-1.87413 -0.584288,-0.62839 -1.819012,-0.62839 -1.146529,0 -1.885158,0.59531 -0.738629,0.59532 -0.826824,1.90721 z"
         style="font-weight:bold;font-size:22.5778px;-inkscape-font-specification:'sans-serif Bold';fill:#000000;stroke-width:0.264583"
         id="path3296"
         inkscape:label="e" />
      <path
         d="m 35.275681,115.32258 h -3.968754 v -1.28985 q -1.025261,0.83785 -1.918231,1.23473 -0.89297,0.39687 -2.061547,0.39687 -2.259985,0 -3.615976,-1.74184 -1.355991,-1.74184 -1.355991,-4.69636 0,-1.57648 0.451997,-2.78915 0.463021,-1.2237 1.256772,-2.09462 0.749653,-0.82682 1.819012,-1.27882 1.069359,-0.46302 2.138718,-0.46302 1.113456,0 1.819012,0.24253 0.71658,0.23151 1.466234,0.59531 v -5.269618 h 3.968754 z m -3.968754,-3.41754 v -6.0744 q -0.418924,-0.17639 -0.881945,-0.25356 -0.463022,-0.0772 -0.848873,-0.0772 -1.565453,0 -2.348179,0.98117 -0.782727,0.97014 -0.782727,2.70095 0,1.81902 0.628386,2.64584 0.628386,0.8158 2.01745,0.8158 0.540192,0 1.146529,-0.19844 0.606338,-0.20946 1.069359,-0.54019 z"
         style="font-weight:bold;font-size:22.5778px;-inkscape-font-specification:'sans-serif Bold';fill:#000000;stroke-width:0.264583"
         id="path3294"
         inkscape:label="d" />
    </g>
    <g
       id="g2619"
       transform="matrix(1,0,0,1.034025,-2.7163152,11.339473)"
       inkscape:label="hands">
      <path
         style="fill:#000000;stroke-width:0.268689"
         d="m 66.035745,116.23775 3.23859,18.6628 3.503345,-18.6628 z"
         id="path333-5"
         sodipodi:nodetypes="cccc"
         inkscape:label="south" />
      <path
         style="fill:#d40000;fill-opacity:1;stroke-width:0.268236"
         d="m 66.143235,102.55366 3.23859,-18.599923 3.50335,18.599923 z"
         id="path333"
         sodipodi:nodetypes="cccc"
         inkscape:label="north" />
    </g>
  </g>
</svg>
